<svg width="1448" height="908" viewBox="0 0 1448 908" fill="none" xmlns="http://www.w3.org/2000/svg">
    <g clip-path="url(#clip0_179459_171078)" filter="url(#filter0_d_179459_171078)">
        <rect width="1440" height="900" transform="translate(4)" fill="white"/>
        <path fill-rule="evenodd" clip-rule="evenodd" d="M1016.26 436.338H438.128V396.467C438.128 387.818 445.168 380.806 453.852 380.806H1000.53C1009.22 380.806 1016.26 387.818 1016.26 396.467V436.338Z" fill="#253368"/>
        <path fill-rule="evenodd" clip-rule="evenodd" d="M478.667 406.879C478.667 412.307 474.276 416.707 468.859 416.707C463.443 416.707 459.052 412.307 459.052 406.879C459.052 401.451 463.443 397.05 468.859 397.05C474.276 397.05 478.667 401.451 478.667 406.879Z" fill="#FF7946"/>
        <path fill-rule="evenodd" clip-rule="evenodd" d="M515.283 406.879C515.283 412.307 510.893 416.707 505.476 416.707C500.06 416.707 495.67 412.307 495.67 406.879C495.67 401.451 500.06 397.05 505.476 397.05C510.893 397.05 515.283 401.451 515.283 406.879Z" fill="#FAAD14"/>
        <path fill-rule="evenodd" clip-rule="evenodd" d="M551.901 406.879C551.901 412.307 547.511 416.707 542.094 416.707C536.678 416.707 532.288 412.307 532.288 406.879C532.288 401.451 536.678 397.05 542.094 397.05C547.511 397.05 551.901 401.451 551.901 406.879Z" fill="#7CB305"/>
        <path fill-rule="evenodd" clip-rule="evenodd" d="M455.058 820.69C445.388 820.69 437.547 813.688 437.547 805.05V432.656H1015.71V805.05C1015.71 813.688 1007.87 820.69 998.196 820.69H455.058Z" fill="#E4EBF7"/>
        <path d="M970.535 461.212H480.869C477.015 461.212 473.891 464.336 473.891 468.19V781.329C473.891 785.183 477.015 788.307 480.869 788.307H970.535C974.389 788.307 977.513 785.183 977.513 781.329V468.19C977.513 464.336 974.389 461.212 970.535 461.212Z" fill="white"/>
        <path d="M715.318 507.94H533.599C526.43 507.94 520.619 513.751 520.619 520.92C520.619 528.089 526.43 533.9 533.599 533.9H715.318C722.487 533.9 728.298 528.089 728.298 520.92C728.298 513.751 722.487 507.94 715.318 507.94Z" fill="#FF7946"/>
        <path d="M871.078 663.699H533.599C526.43 663.699 520.619 669.511 520.619 676.679C520.619 683.848 526.43 689.659 533.599 689.659H871.078C878.246 689.659 884.058 683.848 884.058 676.679C884.058 669.511 878.246 663.699 871.078 663.699Z" fill="#ADC6FF"/>
        <path d="M819.158 715.619H533.599C526.43 715.619 520.619 721.431 520.619 728.599C520.619 735.768 526.43 741.579 533.599 741.579H819.158C826.326 741.579 832.138 735.768 832.138 728.599C832.138 721.431 826.326 715.619 819.158 715.619Z" fill="#7CB305"/>
        <path d="M767.238 611.78H533.599C526.43 611.78 520.619 617.591 520.619 624.76C520.619 631.928 526.43 637.74 533.599 637.74H767.238C774.407 637.74 780.218 631.928 780.218 624.76C780.218 617.591 774.407 611.78 767.238 611.78Z" fill="#FAAD14"/>
        <path d="M922.997 559.86H533.599C526.43 559.86 520.619 565.671 520.619 572.84C520.619 580.008 526.43 585.82 533.599 585.82H922.997C930.166 585.82 935.977 580.008 935.977 572.84C935.977 565.671 930.166 559.86 922.997 559.86Z" fill="#597EF7"/>
        <path d="M1197 844H921C914.373 844 909 849.373 909 856C909 862.627 914.373 868 921 868H1197C1203.63 868 1209 862.627 1209 856C1209 849.373 1203.63 844 1197 844Z" fill="#E4EBF7"/>
        <path d="M486 832H310C303.373 832 298 837.373 298 844C298 850.627 303.373 856 310 856H486C492.627 856 498 850.627 498 844C498 837.373 492.627 832 486 832Z" fill="#E4EBF7"/>
        <path d="M303.403 439.981H381.339C410.541 439.981 434.214 463.654 434.214 492.856C434.214 522.059 410.541 545.731 381.339 545.731H303.403C274.201 545.731 250.528 522.059 250.528 492.856C250.528 463.654 274.201 439.981 303.403 439.981Z" fill="#4E5C93"/>
        <path fill-rule="evenodd" clip-rule="evenodd" d="M408.74 530.351V558.032C408.74 559.248 407.754 560.235 406.537 560.235C405.966 560.235 405.418 560.013 405.007 559.617L384.666 539.99L408.74 530.351Z" fill="#4E5C93"/>
        <path d="M377.759 499.466C373.044 499.466 369.222 495.644 369.222 490.929C369.222 486.214 373.044 482.392 377.759 482.392C382.474 482.392 386.296 486.214 386.296 490.929C386.296 495.644 382.474 499.466 377.759 499.466Z" fill="white"/>
        <path d="M342.784 499.466C338.069 499.466 334.247 495.644 334.247 490.929C334.247 486.214 338.069 482.392 342.784 482.392C347.499 482.392 351.321 486.214 351.321 490.929C351.321 495.644 347.499 499.466 342.784 499.466Z" fill="white"/>
        <path d="M306.983 499.466C302.268 499.466 298.446 495.644 298.446 490.929C298.446 486.214 302.268 482.392 306.983 482.392C311.698 482.392 315.521 486.214 315.521 490.929C315.521 495.644 311.698 499.466 306.983 499.466Z" fill="white"/>
        <path fill-rule="evenodd" clip-rule="evenodd" d="M362.851 758.165C362.851 762.495 359.341 766.006 355.011 766.006C350.681 766.006 347.171 762.495 347.171 758.165C347.171 753.835 350.681 750.325 355.011 750.325C359.341 750.325 362.851 753.835 362.851 758.165Z" fill="#253368"/>
        <path fill-rule="evenodd" clip-rule="evenodd" d="M353.54 828.726H356.575V760.507H353.54V828.726Z" fill="#253368"/>
        <path fill-rule="evenodd" clip-rule="evenodd" d="M353.54 828.726L318.194 834.613L315.913 832.966L353.54 821.883V828.726Z" fill="#253368"/>
        <path fill-rule="evenodd" clip-rule="evenodd" d="M356.575 828.726L391.921 834.613L394.202 832.966L356.575 821.883V828.726Z" fill="#253368"/>
        <path fill-rule="evenodd" clip-rule="evenodd" d="M352.65 836.641H357.465V826.756H352.65V836.641Z" fill="#253368"/>
        <path fill-rule="evenodd" clip-rule="evenodd" d="M321.506 836.772C321.506 839.029 319.676 840.859 317.419 840.859C315.162 840.859 313.332 839.029 313.332 836.772C313.332 834.515 315.162 832.686 317.419 832.686C319.676 832.686 321.506 834.515 321.506 836.772Z" fill="#253368"/>
        <path fill-rule="evenodd" clip-rule="evenodd" d="M359.144 836.772C359.144 839.029 357.314 840.859 355.057 840.859C352.801 840.859 350.971 839.029 350.971 836.772C350.971 834.515 352.801 832.686 355.057 832.686C357.314 832.686 359.144 834.515 359.144 836.772Z" fill="#253368"/>
        <path fill-rule="evenodd" clip-rule="evenodd" d="M397.14 836.772C397.14 839.029 395.311 840.859 393.053 840.859C390.797 840.859 388.967 839.029 388.967 836.772C388.967 834.515 390.797 832.686 393.053 832.686C395.311 832.686 397.14 834.515 397.14 836.772Z" fill="#253368"/>
        <path fill-rule="evenodd" clip-rule="evenodd" d="M404.155 756.726H305.867C305.867 747.066 313.698 739.235 323.359 739.235H386.664C396.324 739.235 404.155 747.066 404.155 756.726Z" fill="#A3B5D6"/>
        <path fill-rule="evenodd" clip-rule="evenodd" d="M392.475 685.808C392.475 685.808 391.685 698.95 379.659 698.022C367.397 697.076 368.715 683.811 368.715 683.811C368.715 683.811 368.119 675.566 368.974 664.478C369.643 655.814 370.67 644.499 371.626 638.997C372.657 633.058 378.129 629.139 383.761 629.573C392.322 630.234 395.225 637.131 395.036 643.124C394.852 648.953 394.575 658.543 394.229 664.963C393.565 677.307 392.475 685.808 392.475 685.808Z" fill="#ADC6FF"/>
        <path fill-rule="evenodd" clip-rule="evenodd" d="M419.322 701.837C420.769 707.241 432.805 705.406 432.805 705.406L438.704 710.209C439.639 710.855 440.039 710.225 440.548 710.34C441.918 710.653 442.247 709.214 442.247 709.214C442.77 709.096 443.448 709.631 443.951 708.376C443.951 708.376 444.927 708.525 445.26 707.376C445.385 706.949 443.501 701.162 442.377 697.776C441.883 696.289 440.596 695.209 439.047 694.976L424.643 692.807C424.643 692.807 417.375 694.568 419.322 701.837Z" fill="#C99382"/>
        <path d="M431.92 701.634C431.756 701.564 431.565 701.64 431.495 701.805C431.433 701.951 431.486 702.118 431.614 702.203L431.666 702.23L435.921 704.046L440.169 709.895C440.262 710.024 440.433 710.064 440.571 709.997L440.621 709.967C440.75 709.874 440.79 709.703 440.723 709.565L440.693 709.514L436.392 703.594C436.369 703.562 436.341 703.535 436.309 703.514L436.258 703.486L431.92 701.634Z" fill="#9B6160"/>
        <path d="M434.813 699.849C434.657 699.762 434.46 699.817 434.372 699.973C434.294 700.111 434.329 700.283 434.447 700.381L434.495 700.414L438.4 702.614L441.863 708.67C441.942 708.808 442.107 708.866 442.252 708.815L442.305 708.79C442.443 708.711 442.501 708.546 442.45 708.401L442.426 708.348L438.919 702.216C438.9 702.182 438.874 702.152 438.845 702.127L438.797 702.094L434.813 699.849Z" fill="#9B6160"/>
        <path d="M437.616 698.2C437.476 698.089 437.272 698.112 437.161 698.253C437.062 698.377 437.07 698.552 437.171 698.667L437.214 698.708L439.844 700.788L443.003 707.287C443.073 707.43 443.234 707.499 443.381 707.457L443.436 707.436C443.579 707.367 443.648 707.206 443.607 707.058L443.586 707.003L440.394 700.438C440.38 700.409 440.361 700.382 440.339 700.359L440.304 700.326L437.616 698.2Z" fill="#9B6160"/>
        <path fill-rule="evenodd" clip-rule="evenodd" d="M381.122 676.636C381.122 676.636 369.003 674.088 366.542 684.146C364.005 694.519 375.516 697.502 375.516 697.502C375.516 697.502 383.67 699.402 393.708 701.787C399.836 703.243 406.635 704.716 411.725 705.077C417.236 705.468 418.483 702.65 419.713 697.62C421.174 691.648 421.17 689.031 416.069 686.984C411.205 685.033 404.367 683.275 399.129 681.672C389.142 678.619 381.122 676.636 381.122 676.636Z" fill="#ADC6FF"/>
        <path fill-rule="evenodd" clip-rule="evenodd" d="M422.252 704.263L425.097 692.632L417.445 689.872L414.189 703.177L422.252 704.263Z" fill="#ADC6FF"/>
        <path fill-rule="evenodd" clip-rule="evenodd" d="M430.636 725.542C406.566 719.289 381.62 713.07 361.662 708.578C361.662 708.578 346.6 707.756 345.804 721.503C345.024 734.977 361.296 738.98 361.296 738.98L426.659 749.139C426.659 749.139 437.323 750.676 439.105 738.844C440.729 728.052 430.636 725.542 430.636 725.542Z" fill="#597EF7"/>
        <path fill-rule="evenodd" clip-rule="evenodd" d="M426.395 789.229C422.122 788.372 418.166 791.721 418.318 796.077C418.492 801.088 418.692 807.859 418.809 815.153C418.929 822.661 419.044 828.882 419.581 829.672C421.948 833.153 426.677 834.448 431.537 837.897C435.384 840.627 436.048 841.924 440.949 842.842C447.897 844.143 444.658 841.196 436.944 831.873C430.07 823.568 430.533 819.673 430.533 819.673L431.812 796.218C431.994 792.866 429.687 789.889 426.395 789.229Z" fill="#C99382"/>
        <path fill-rule="evenodd" clip-rule="evenodd" d="M436.246 829.668C441.266 835.248 447.018 839.658 446.879 842.307C446.739 844.957 444.65 847.349 436.008 844.283C430.094 842.184 431.786 840.914 426.141 837.242C423.321 835.407 422.294 835.604 419.694 833.47C418.205 831.554 418.875 822.248 418.875 822.248L428.768 833.09C428.768 833.09 426.196 828.041 428.31 826.946C430.424 825.851 432.369 825.106 433.616 826.004C434.862 826.902 436.246 829.668 436.246 829.668Z" fill="#7D4556"/>
        <path fill-rule="evenodd" clip-rule="evenodd" d="M441.144 739.028C437.899 778.416 434.206 816.954 434.206 816.954L417.531 816.943L414.926 737.611C414.926 737.611 416.389 728.508 429.269 726.851C441.115 725.326 441.144 739.028 441.144 739.028Z" fill="#597EF7"/>
        <path fill-rule="evenodd" clip-rule="evenodd" d="M321.549 726.387C323.05 710.499 323.448 702.331 325.229 699.347C363.52 700.441 373.058 699.937 373.058 699.937C373.058 699.937 373.449 705.557 375.213 722.857C375.213 722.857 363.424 744.339 348.211 744.339C334.496 744.339 321.549 726.387 321.549 726.387Z" fill="#597EF7"/>
        <path fill-rule="evenodd" clip-rule="evenodd" d="M325.229 699.347L325.953 692.141L372.84 692.704L373.058 699.92C373.058 699.92 348.244 700.876 325.229 699.347Z" fill="#597EF7"/>
        <path fill-rule="evenodd" clip-rule="evenodd" d="M346.308 603.961C346.308 603.961 339.796 599.969 342.403 592.88C339.763 586.542 343.475 582.899 343.475 582.899C343.475 582.899 344.012 574.782 349.417 574.595C353.224 566.434 362.533 570.177 362.533 570.177C362.533 570.177 368.841 565.533 377.169 572.748C383.497 573.294 383.68 570.148 385.607 572.439C387.535 574.73 388.187 579.902 385.369 581.783C389.955 584.038 385.309 591.273 385.309 591.273C385.309 591.273 386.625 595.663 381.056 598.635C375.486 601.608 372.913 611.757 363.764 614.53C354.961 617.199 345.934 613.97 346.308 603.961Z" fill="#7D4556"/>
        <path fill-rule="evenodd" clip-rule="evenodd" d="M348.964 619.369L351.61 605.48L370.052 608.748L369.598 621.002C369.396 626.473 364.723 630.7 359.259 630.354C359.155 630.347 359.051 630.34 358.946 630.334C353.359 629.982 348.283 624.926 348.964 619.369Z" fill="#C99382"/>
        <path fill-rule="evenodd" clip-rule="evenodd" d="M356.58 584.276C356.58 584.276 357.579 589.26 353.725 590.397C354.273 596.812 351.508 596.206 351.508 596.206C351.508 596.206 347.166 590.451 344.031 595.356C341.053 600.015 345.95 607.04 350.618 606.047C358.149 618.577 373.624 619.464 378.89 611.429C382.089 606.546 381.077 599.348 381.53 595.982C382.643 587.711 381.157 585.175 381.157 585.175C381.157 585.175 377.976 585.794 374.557 583.135C370.788 585.826 365.507 583.006 365.507 583.006C365.507 583.006 361.852 587.507 356.58 584.276Z" fill="#C99382"/>
        <path d="M347.973 596.378C346.908 596.151 346.174 596.415 345.77 597.013C345.589 597.281 345.514 597.546 345.497 597.74C345.481 597.934 345.624 598.105 345.818 598.122C346.012 598.139 346.183 597.995 346.2 597.801C346.208 597.716 346.251 597.56 346.354 597.408C346.591 597.057 347.032 596.899 347.825 597.068C348.574 597.228 349.194 597.806 349.552 598.577C349.702 598.9 349.788 599.227 349.798 599.485C349.805 599.673 349.772 599.769 349.765 599.773C349.038 600.172 348.47 600.747 348.281 601.384C348.039 602.2 348.431 602.997 349.46 603.661C349.623 603.766 349.842 603.719 349.947 603.556C350.053 603.392 350.006 603.174 349.842 603.068C349.056 602.561 348.814 602.069 348.957 601.585C349.085 601.156 349.525 600.709 350.104 600.392C351.276 599.75 349.9 596.79 347.973 596.378Z" fill="#9B6160"/>
        <path d="M349.012 598.97C348.686 598.931 348.349 598.919 348.027 598.951C347.154 599.039 346.565 599.446 346.569 600.262C346.569 600.456 346.728 600.614 346.923 600.613C347.117 600.612 347.275 600.453 347.274 600.259C347.272 599.894 347.54 599.709 348.098 599.653C348.36 599.627 348.649 599.637 348.927 599.671L349.055 599.688C349.091 599.693 349.118 599.698 349.137 599.702C349.328 599.739 349.513 599.614 349.55 599.422C349.587 599.231 349.462 599.046 349.271 599.009L349.138 598.987C349.101 598.982 349.059 598.976 349.012 598.97Z" fill="#9B6160"/>
        <path fill-rule="evenodd" clip-rule="evenodd" d="M368.809 595.891C368.515 599.276 365.535 601.783 362.148 601.492C358.763 601.199 356.256 598.217 356.548 594.832C356.84 591.446 359.822 588.938 363.207 589.231C366.594 589.523 369.101 592.505 368.809 595.891Z" fill="white"/>
        <path d="M363.245 588.799C366.869 589.112 369.554 592.304 369.241 595.928C368.926 599.552 365.736 602.236 362.111 601.924C358.487 601.611 355.803 598.419 356.116 594.795C356.423 591.23 359.517 588.574 363.067 588.786L363.245 588.799ZM356.98 594.869C356.708 598.016 359.039 600.788 362.186 601.06C365.333 601.331 368.104 599.001 368.377 595.853C368.649 592.706 366.318 589.934 363.17 589.663C360.023 589.391 357.251 591.722 356.98 594.869Z" fill="#7D4556"/>
        <path fill-rule="evenodd" clip-rule="evenodd" d="M383.726 596.601C383.433 599.987 380.452 602.494 377.066 602.202C373.68 601.91 371.172 598.928 371.466 595.542C371.757 592.157 374.739 589.649 378.125 589.941C381.511 590.234 384.018 593.216 383.726 596.601Z" fill="white"/>
        <path d="M378.162 589.509C381.787 589.822 384.471 593.014 384.158 596.638C383.844 600.263 380.653 602.946 377.029 602.634C373.404 602.321 370.72 599.129 371.034 595.505C371.341 591.94 374.434 589.284 377.984 589.496L378.162 589.509ZM371.898 595.579C371.625 598.726 373.956 601.499 377.103 601.77C380.251 602.041 383.021 599.711 383.294 596.564C383.566 593.417 381.235 590.645 378.087 590.373C374.94 590.101 372.169 592.433 371.898 595.579Z" fill="#7D4556"/>
        <path d="M370.322 594.886C370.152 594.982 370.093 595.197 370.189 595.366L370.278 595.527C370.35 595.659 370.43 595.809 370.517 595.975C370.764 596.45 371.011 596.956 371.242 597.471C371.45 597.935 371.634 598.384 371.788 598.81C372.306 600.243 372.425 601.28 372.1 601.654C371.735 602.074 371.259 602.322 370.688 602.425C370.107 602.53 369.472 602.478 368.854 602.327C368.622 602.27 368.45 602.214 368.359 602.179C368.178 602.108 367.973 602.197 367.902 602.379C367.832 602.56 367.921 602.765 368.103 602.836L368.224 602.879C368.341 602.919 368.497 602.966 368.687 603.012C369.392 603.185 370.121 603.244 370.813 603.119C371.534 602.989 372.155 602.666 372.632 602.117C373.198 601.465 373.058 600.249 372.451 598.57C372.291 598.127 372.1 597.662 371.886 597.183C371.649 596.654 371.396 596.136 371.142 595.65L370.974 595.331L370.802 595.018C370.706 594.849 370.491 594.79 370.322 594.886Z" fill="#9B6160"/>
        <path fill-rule="evenodd" clip-rule="evenodd" d="M363.822 604.413C363.822 604.413 369.438 605.55 373.546 605.252C373.546 605.252 372.061 609.206 368.051 608.37C364.49 607.627 363.822 604.413 363.822 604.413Z" fill="white"/>
        <path d="M363.895 604.049L364.632 604.187C365.218 604.29 365.864 604.394 366.551 604.49C368.019 604.697 369.466 604.843 370.818 604.903C371.804 604.946 372.711 604.941 373.519 604.883C373.788 604.863 373.988 605.13 373.893 605.383L373.845 605.5C373.796 605.613 373.726 605.76 373.632 605.934C373.415 606.335 373.145 606.737 372.818 607.112C371.626 608.483 370.013 609.158 367.975 608.733C366.509 608.427 365.388 607.706 364.576 606.7C364.189 606.221 363.898 605.708 363.689 605.195C363.562 604.883 363.49 604.637 363.459 604.488C363.405 604.228 363.635 603.997 363.895 604.049ZM364.503 604.916L364.367 604.891L364.375 604.915C364.559 605.365 364.814 605.815 365.153 606.235C365.861 607.112 366.834 607.737 368.126 608.007C369.88 608.373 371.231 607.807 372.259 606.626L372.426 606.424C372.588 606.22 372.732 606.008 372.859 605.795L372.938 605.656L372.925 605.657C372.261 605.682 371.545 605.677 370.785 605.643C369.408 605.583 367.937 605.434 366.447 605.224C365.752 605.126 365.097 605.021 364.503 604.916Z" fill="#7D4556"/>
        <path d="M373.79 587.917C373.613 587.814 373.387 587.875 373.284 588.052C373.181 588.229 373.241 588.455 373.418 588.558C375.32 589.662 377.748 590.108 380.292 589.639C380.493 589.602 380.626 589.409 380.589 589.208C380.552 589.006 380.359 588.873 380.158 588.91C377.79 589.347 375.542 588.933 373.79 587.917Z" fill="#7D4556"/>
        <path d="M370.683 593.556C369.986 593.465 369.25 593.466 368.558 593.521L368.291 593.546L368.175 593.56L368.289 594.419L368.536 594.393C368.564 594.391 368.595 594.388 368.627 594.385C369.263 594.334 369.943 594.334 370.571 594.415C370.948 594.464 371.284 594.541 371.569 594.647L371.707 594.702L372.051 593.906C371.657 593.736 371.197 593.622 370.683 593.556Z" fill="#7D4556"/>
        <path d="M377.72 594.601C376.664 594.51 375.892 594.969 375.402 595.763C375.144 596.182 375.014 596.595 374.966 596.888C374.927 597.124 375.087 597.347 375.323 597.386C375.56 597.425 375.782 597.264 375.821 597.028L375.836 596.958C375.846 596.913 375.862 596.855 375.884 596.786C375.945 596.591 376.03 596.397 376.14 596.218C376.469 595.685 376.942 595.404 377.645 595.465C378.287 595.52 378.657 595.846 378.855 596.394C378.961 596.687 379.002 597.001 379.003 597.272L378.999 597.432C378.978 597.671 379.155 597.881 379.393 597.901C379.612 597.92 379.807 597.774 379.854 597.565L379.864 597.487C379.865 597.479 379.865 597.468 379.867 597.444C379.885 597.042 379.839 596.567 379.67 596.099C379.364 595.252 378.723 594.687 377.72 594.601Z" fill="#7D4556"/>
        <path d="M362.972 593.327C361.917 593.236 361.145 593.695 360.654 594.489C360.396 594.908 360.265 595.321 360.217 595.614C360.178 595.85 360.338 596.073 360.574 596.112C360.789 596.147 360.993 596.018 361.058 595.817L361.1 595.635C361.109 595.6 361.121 595.558 361.135 595.512C361.197 595.318 361.282 595.123 361.392 594.945C361.721 594.411 362.194 594.13 362.898 594.191C363.539 594.246 363.908 594.572 364.107 595.12C364.213 595.414 364.255 595.727 364.256 595.998L364.251 596.159C364.231 596.397 364.407 596.607 364.646 596.628C364.864 596.647 365.059 596.5 365.106 596.291L365.117 596.198L365.119 596.171C365.138 595.769 365.092 595.293 364.922 594.825C364.616 593.978 363.975 593.414 362.972 593.327Z" fill="#7D4556"/>
        <path d="M356.548 594.832L350.49 594.308" stroke="#7D4556" stroke-width="1.383"/>
        <path d="M367.172 587.314C367.095 587.124 366.879 587.032 366.69 587.109C366.011 587.383 365.206 587.575 364.303 587.694C362.933 587.874 361.464 587.875 360.088 587.767L359.804 587.742L359.363 587.696C359.16 587.669 358.974 587.812 358.948 588.015C358.921 588.218 359.064 588.404 359.267 588.43L359.473 588.454L359.735 588.48C359.828 588.489 359.927 588.497 360.03 588.505C361.453 588.617 362.97 588.617 364.399 588.429C365.361 588.303 366.224 588.096 366.967 587.796C367.157 587.72 367.248 587.504 367.172 587.314Z" fill="#7D4556"/>
        <path d="M367.747 612.194C367.553 612.185 367.388 612.336 367.379 612.53L367.367 612.714C367.36 612.814 367.349 612.938 367.334 613.081C367.289 613.497 367.224 613.913 367.136 614.299C366.952 615.101 366.687 615.65 366.396 615.81C366.225 615.903 366.162 616.117 366.256 616.288C366.349 616.459 366.564 616.522 366.735 616.428C367.262 616.139 367.596 615.445 367.823 614.457C367.919 614.041 367.988 613.598 368.035 613.156L368.063 612.863L368.084 612.562C368.092 612.368 367.942 612.203 367.747 612.194Z" fill="#9B6160"/>
        <path d="M368.977 613.403C368.782 613.401 368.623 613.558 368.621 613.752L368.613 614.038C368.61 614.099 368.607 614.168 368.602 614.242C368.581 614.611 368.546 614.98 368.494 615.322C368.443 615.66 368.377 615.953 368.298 616.183C368.235 616.367 368.333 616.568 368.517 616.631C368.701 616.695 368.902 616.597 368.965 616.412C369.06 616.136 369.134 615.805 369.191 615.428C369.247 615.062 369.284 614.672 369.307 614.282L369.321 613.973C369.324 613.885 369.326 613.812 369.326 613.759C369.328 613.564 369.172 613.405 368.977 613.403Z" fill="#9B6160"/>
        <path d="M366.118 613.653C365.932 613.596 365.735 613.7 365.678 613.887L365.648 613.978C365.63 614.034 365.605 614.104 365.575 614.186C365.492 614.414 365.397 614.641 365.295 614.852C365.105 615.243 364.91 615.522 364.754 615.629L364.709 615.655C364.534 615.741 364.461 615.952 364.547 616.127C364.632 616.302 364.843 616.375 365.018 616.289C365.366 616.119 365.655 615.725 365.929 615.16C366.043 614.926 366.146 614.677 366.237 614.429L366.318 614.198C366.332 614.156 366.344 614.121 366.352 614.093C366.409 613.907 366.304 613.71 366.118 613.653Z" fill="#9B6160"/>
        <path d="M370.048 613.137C369.875 613.162 369.749 613.31 369.746 613.479L369.75 613.537L370.057 615.645C370.086 615.838 370.265 615.971 370.457 615.943C370.631 615.918 370.756 615.77 370.759 615.601L370.755 615.543L370.448 613.435C370.423 613.261 370.275 613.136 370.105 613.133L370.048 613.137Z" fill="#9B6160"/>
        <path d="M357.943 612.981C357.78 612.874 357.561 612.919 357.455 613.082C357.348 613.245 357.393 613.464 357.556 613.57C358.105 613.93 358.671 614.257 359.252 614.552C362.793 616.352 366.491 616.862 369.667 616.645L369.963 616.622C370.233 616.6 370.424 616.577 370.528 616.561C370.721 616.532 370.853 616.352 370.824 616.16C370.795 615.967 370.615 615.835 370.423 615.864L370.261 615.885C370.192 615.892 370.108 615.901 370.009 615.91L369.905 615.919C366.782 616.179 363.089 615.711 359.572 613.924C359.013 613.64 358.47 613.326 357.943 612.981Z" fill="#9B6160"/>
        <path d="M365.18 601.952C365.125 601.765 364.929 601.658 364.742 601.713L364.58 601.765C364.454 601.806 364.315 601.855 364.165 601.911C363.736 602.071 363.307 602.259 362.905 602.474C361.559 603.193 360.786 604.045 360.973 605.076C361.008 605.267 361.192 605.395 361.383 605.36C361.575 605.325 361.702 605.141 361.667 604.95C361.554 604.327 362.137 603.684 363.237 603.096C363.609 602.898 364.011 602.722 364.412 602.571L364.604 602.501C364.752 602.449 364.868 602.411 364.942 602.39C365.129 602.335 365.235 602.138 365.18 601.952Z" fill="#9B6160"/>
        <path fill-rule="evenodd" clip-rule="evenodd" d="M348.001 620.027L346.031 623.683C346.031 623.683 332.368 625.322 325.696 629.341C319.664 632.974 320.423 671.335 321.352 684.246C318.102 699.404 330.229 698.181 330.229 698.181L373.509 701.751C373.509 701.751 379.844 698.154 376.694 687.472C377.502 678.786 391.606 637.129 386.158 631.681C381.921 627.445 371.695 626.616 371.695 626.616L371.009 622.369C371.009 622.369 364.445 621.62 348.001 620.027Z" fill="#ADC6FF"/>
        <path d="M384.074 648.268C383.876 648.249 383.7 648.394 383.68 648.592C383.308 652.419 382.582 656.987 381.56 662.14C380.984 665.043 380.323 668.086 379.593 671.226C378.732 674.931 377.816 678.602 376.893 682.105L376.351 684.145C376.196 684.719 376.048 685.267 375.905 685.788L375.534 687.132L375.219 688.246C375.164 688.437 375.275 688.637 375.466 688.692C375.658 688.747 375.858 688.637 375.913 688.445L376.29 687.104L376.601 685.978C376.815 685.196 377.043 684.352 377.283 683.452C378.31 679.596 379.337 675.514 380.296 671.389C381.027 668.242 381.69 665.192 382.267 662.28L382.499 661.097C383.404 656.404 384.052 652.219 384.398 648.662C384.418 648.464 384.272 648.288 384.074 648.268Z" fill="#597EF7"/>
        <path d="M349.398 625.702C349.206 625.651 349.008 625.766 348.958 625.959C348.907 626.151 349.022 626.348 349.215 626.399C355.971 628.179 362.604 628.635 368.189 628.332L368.652 628.305C368.937 628.288 369.196 628.269 369.425 628.25L369.883 628.208C369.899 628.206 369.913 628.204 369.924 628.203C370.122 628.181 370.265 628.002 370.242 627.804C370.22 627.606 370.041 627.464 369.843 627.486L369.528 627.517L369.007 627.559C368.881 627.568 368.747 627.577 368.607 627.586C362.998 627.935 356.258 627.509 349.398 625.702Z" fill="#597EF7"/>
        <path fill-rule="evenodd" clip-rule="evenodd" d="M392.277 796.929C387.633 796.162 383.487 799.922 383.809 804.618C384.181 810.021 384.645 817.322 385.039 825.192C385.444 833.291 385.796 840.002 386.405 840.835C389.086 844.506 394.241 845.731 399.613 849.275C403.864 852.081 404.629 853.457 409.953 854.267C417.501 855.417 413.897 852.355 405.228 842.575C397.505 833.862 397.86 829.64 397.86 829.64L398.38 804.276C398.454 800.651 395.855 797.521 392.277 796.929Z" fill="#C99382"/>
        <path fill-rule="evenodd" clip-rule="evenodd" d="M404.394 840.22C410.017 846.058 416.388 850.607 416.334 853.473C416.281 856.338 414.114 858.997 404.673 856.003C398.211 853.954 399.991 852.523 393.764 848.765C390.654 846.888 389.551 847.139 386.667 844.93C384.988 842.917 385.37 832.848 385.37 832.848L396.448 844.187C396.448 844.187 393.485 838.831 395.727 837.573C397.968 836.314 400.042 835.438 401.421 836.361C402.799 837.283 404.394 840.22 404.394 840.22Z" fill="#7D4556"/>
        <path fill-rule="evenodd" clip-rule="evenodd" d="M405.88 741.645C403.857 784.281 401.317 826.017 401.317 826.017L383.318 826.633L377.529 741.099C377.529 741.099 378.594 728.317 392.606 728.946C405.249 729.513 405.88 741.645 405.88 741.645Z" fill="#597EF7"/>
        <path fill-rule="evenodd" clip-rule="evenodd" d="M398.326 727.682C378.865 720.466 354.014 715.219 336.011 711.559C336.011 711.559 322.505 713.36 321.592 726.633C320.698 739.642 335.371 742.953 335.371 742.953L394.396 750.552C394.396 750.552 404.027 751.675 405.805 740.215C407.427 729.762 398.326 727.682 398.326 727.682Z" fill="#597EF7"/>
        <path d="M324.727 701.32C324.532 701.32 324.374 701.478 324.374 701.673C324.374 701.848 324.502 701.994 324.669 702.021L324.727 702.026H372.742C372.937 702.026 373.095 701.868 373.095 701.673C373.095 701.498 372.967 701.352 372.799 701.325L372.742 701.32H324.727Z" fill="#253368"/>
        <path d="M325.257 706.793C325.062 706.793 324.904 706.951 324.904 707.145C324.904 707.321 325.032 707.466 325.2 707.493L325.257 707.498H373.448C373.643 707.498 373.801 707.34 373.801 707.145C373.801 706.97 373.673 706.825 373.505 706.797L373.448 706.793H325.257Z" fill="#253368"/>
        <path d="M358.338 701.233C358.163 701.241 358.023 701.376 358.004 701.544L358.002 701.602L358.267 707.162C358.277 707.357 358.442 707.507 358.636 707.498C358.812 707.49 358.951 707.355 358.97 707.186L358.972 707.129L358.707 701.568C358.697 701.374 358.532 701.223 358.338 701.233Z" fill="#253368"/>
        <path fill-rule="evenodd" clip-rule="evenodd" d="M401.078 727.507L346.827 715.741L402.006 702.396L446.433 716.63L401.078 727.507Z" fill="#CCD7EE"/>
        <path fill-rule="evenodd" clip-rule="evenodd" d="M403.357 723.808L363.957 715.263L403.099 705.443L436.298 715.908L403.357 723.808Z" fill="#4E5C93"/>
        <path fill-rule="evenodd" clip-rule="evenodd" d="M346.7 718.569L346.815 715.76L402.207 727.317L401.092 730.26L346.7 718.569Z" fill="#253368"/>
        <path d="M410.253 708.215L378.316 717.913C378.192 717.951 378.122 718.083 378.16 718.207C378.193 718.316 378.297 718.383 378.406 718.373L378.453 718.363L410.39 708.665C410.514 708.627 410.584 708.496 410.547 708.372C410.514 708.263 410.409 708.196 410.3 708.206L410.253 708.215Z" fill="#CCD7EE"/>
        <path d="M406.201 706.312L370.527 716.496C370.402 716.532 370.329 716.662 370.365 716.787C370.396 716.896 370.5 716.965 370.609 716.957L370.656 716.948L406.33 706.764C406.455 706.729 406.527 706.599 406.492 706.474C406.46 706.365 406.357 706.296 406.248 706.304L406.201 706.312Z" fill="#CCD7EE"/>
        <path d="M410.562 711.09L383.719 719.651C383.595 719.69 383.527 719.822 383.566 719.946C383.601 720.054 383.706 720.12 383.815 720.108L383.862 720.099L410.705 711.538C410.829 711.498 410.897 711.366 410.858 711.242C410.823 711.134 410.718 711.068 410.609 711.08L410.562 711.09Z" fill="#CCD7EE"/>
        <path d="M417.72 712.216L390.877 720.777C390.753 720.816 390.685 720.948 390.724 721.072C390.759 721.18 390.864 721.246 390.973 721.234L391.02 721.225L417.863 712.664C417.987 712.624 418.055 712.492 418.016 712.368C417.981 712.26 417.876 712.194 417.767 712.206L417.72 712.216Z" fill="#CCD7EE"/>
        <path d="M424.304 713.724L397.461 722.285C397.337 722.324 397.269 722.456 397.308 722.58C397.343 722.688 397.448 722.754 397.557 722.742L397.603 722.733L424.447 714.172C424.571 714.132 424.639 714 424.6 713.876C424.565 713.768 424.46 713.702 424.351 713.714L424.304 713.724Z" fill="#CCD7EE"/>
        <path d="M370.557 713.908C370.429 713.885 370.307 713.97 370.284 714.097C370.263 714.209 370.326 714.317 370.427 714.357L370.473 714.371L404.257 720.495C404.385 720.518 404.507 720.433 404.53 720.305C404.551 720.193 404.488 720.086 404.387 720.045L404.341 720.032L370.557 713.908Z" fill="#CCD7EE"/>
        <path d="M378.254 711.674C378.126 711.651 378.004 711.736 377.981 711.864C377.96 711.976 378.023 712.083 378.124 712.124L378.17 712.137L411.955 718.261C412.083 718.284 412.205 718.2 412.228 718.072C412.249 717.96 412.186 717.852 412.085 717.812L412.039 717.798L378.254 711.674Z" fill="#CCD7EE"/>
        <path d="M387.71 710.429C387.582 710.406 387.459 710.491 387.436 710.618C387.416 710.73 387.478 710.838 387.58 710.879L387.626 710.892L421.41 717.016C421.537 717.039 421.66 716.954 421.683 716.826C421.703 716.715 421.641 716.607 421.539 716.566L421.494 716.553L387.71 710.429Z" fill="#CCD7EE"/>
        <path d="M394.303 706.079C394.175 706.056 394.052 706.141 394.029 706.269C394.009 706.38 394.071 706.488 394.173 706.529L394.219 706.542L428.004 712.666C428.131 712.689 428.254 712.604 428.277 712.476C428.297 712.365 428.235 712.257 428.133 712.216L428.088 712.203L394.303 706.079Z" fill="#CCD7EE"/>
        <path fill-rule="evenodd" clip-rule="evenodd" d="M401.136 730.265L403.584 730.617L446.541 719.748L467.639 649.364L421.665 655.865L401.136 730.265Z" fill="#253368"/>
        <path fill-rule="evenodd" clip-rule="evenodd" d="M403.671 730.627L448.97 719.184C449.384 719.081 449.713 718.766 449.836 718.357L470.189 650.721C470.446 649.871 469.733 649.043 468.855 649.168L425.241 655.395C424.764 655.464 424.371 655.809 424.242 656.274L403.671 730.627Z" fill="#4E5C93"/>
        <path fill-rule="evenodd" clip-rule="evenodd" d="M338.053 684.63C338.053 684.63 336.571 697.711 324.611 696.152C312.415 694.562 314.432 681.384 314.432 681.384C314.432 681.384 314.27 673.12 315.708 662.093C316.832 653.476 318.453 642.231 319.697 636.785C321.04 630.909 326.711 627.285 332.313 628.014C340.826 629.125 343.363 636.165 342.858 642.141C342.367 647.951 341.586 657.514 340.903 663.907C339.589 676.198 338.053 684.63 338.053 684.63Z" fill="#ADC6FF"/>
        <path fill-rule="evenodd" clip-rule="evenodd" d="M372.648 701.441C374.224 707.322 387.323 705.326 387.323 705.326L393.743 710.553C394.76 711.255 395.197 710.57 395.75 710.696C397.242 711.036 397.598 709.469 397.598 709.469C398.169 709.341 398.907 709.924 399.453 708.558C399.453 708.558 400.515 708.721 400.878 707.47C401.013 707.004 398.964 700.706 397.74 697.022C397.202 695.403 395.803 694.228 394.117 693.974L378.44 691.613C378.44 691.613 370.53 693.528 372.648 701.441Z" fill="#C99382"/>
        <path d="M386.36 701.219C386.181 701.143 385.973 701.226 385.897 701.405C385.828 701.566 385.889 701.75 386.032 701.841L386.083 701.868L390.713 703.846L395.336 710.211C395.438 710.351 395.624 710.394 395.774 710.322L395.829 710.289C395.969 710.187 396.012 710.002 395.94 709.851L395.907 709.797L391.226 703.353C391.201 703.318 391.17 703.289 391.135 703.266L391.079 703.236L386.36 701.219Z" fill="#9B6160"/>
        <path d="M389.509 699.279C389.339 699.183 389.124 699.243 389.028 699.413C388.943 699.564 388.981 699.75 389.11 699.857L389.162 699.893L393.414 702.288L397.181 708.878C397.267 709.028 397.447 709.091 397.604 709.035L397.662 709.009C397.812 708.923 397.876 708.743 397.82 708.585L397.793 708.527L393.977 701.853C393.956 701.816 393.928 701.784 393.896 701.757L393.844 701.721L389.509 699.279Z" fill="#9B6160"/>
        <path d="M392.558 697.482C392.405 697.361 392.184 697.387 392.063 697.54C391.955 697.676 391.964 697.866 392.074 697.992L392.121 698.036L394.983 700.299L398.422 707.372C398.499 707.53 398.677 707.604 398.84 707.556L398.893 707.535C399.051 707.458 399.126 707.28 399.077 707.117L399.056 707.064L395.582 699.918C395.567 699.886 395.547 699.857 395.523 699.831L395.484 699.796L392.558 697.482Z" fill="#9B6160"/>
        <path fill-rule="evenodd" clip-rule="evenodd" d="M331.074 674.014C331.074 674.014 317.885 671.24 315.206 682.187C312.443 693.476 324.973 696.723 324.973 696.723C324.973 696.723 333.846 698.791 344.77 701.387C351.441 702.971 358.841 704.574 364.38 704.967C370.378 705.393 371.734 702.325 373.073 696.852C374.665 690.352 374.661 687.503 369.108 685.276C363.814 683.152 356.371 681.239 350.671 679.495C339.803 676.171 331.074 674.014 331.074 674.014Z" fill="#ADC6FF"/>
        <path fill-rule="evenodd" clip-rule="evenodd" d="M375.837 704.081L378.935 691.423L370.605 688.42L367.062 702.899L375.837 704.081Z" fill="#ADC6FF"/>
        <path d="M342.771 649.328C342.573 649.307 342.395 649.45 342.374 649.649L342.268 650.563C342.026 652.542 341.551 655.871 340.867 660.447L338.487 676.162C338.462 676.341 338.573 676.512 338.748 676.56C341.982 677.453 345.286 678.403 348.611 679.407L350.884 680.095L358.412 682.294L359.637 682.657C363.422 683.786 366.14 684.686 368.444 685.61C371.153 686.697 372.47 687.911 372.912 689.657C372.937 689.754 373 689.835 373.086 689.883L373.14 689.908L377.978 691.652L375.036 703.679L369.78 702.972C369.69 702.96 369.601 702.982 369.528 703.032L369.477 703.075C368.26 704.291 366.522 704.796 363.877 704.607C359.209 704.276 353.212 703.136 344.821 701.154L337.853 699.503L324.526 696.372C324.332 696.327 324.138 696.448 324.093 696.642C324.048 696.836 324.168 697.029 324.362 697.075L330.163 698.433C333.014 699.102 335.968 699.798 338.972 700.508L345.149 701.972C353.319 703.892 359.2 704.999 363.825 705.327C366.487 705.516 368.36 705.033 369.721 703.834L369.857 703.71L375.26 704.438C375.423 704.46 375.576 704.369 375.639 704.223L375.659 704.166L378.755 691.509C378.794 691.35 378.721 691.187 378.582 691.109L378.527 691.084L373.56 689.292L373.518 689.152C372.951 687.379 371.541 686.117 368.951 685.038L368.713 684.941L368.224 684.747C366.161 683.943 363.76 683.146 360.595 682.191L357.844 681.379C356.271 680.923 352.705 679.886 350.923 679.354L350.248 679.151C346.912 678.13 343.591 677.162 340.332 676.252L339.247 675.95L341.53 660.897C342.364 655.321 342.897 651.542 343.091 649.725C343.113 649.527 342.969 649.349 342.771 649.328Z" fill="#597EF7"/>
        <path fill-rule="evenodd" clip-rule="evenodd" d="M1197.14 694.513C1218.53 684.395 1231.28 710.932 1220.52 725.708C1207.39 743.739 1200.67 764.485 1196.92 770.736C1193.76 776.009 1185.11 788.865 1174.69 782.94C1165.1 777.486 1170.32 756.084 1170.32 756.084C1170.32 756.084 1170.75 706.996 1197.14 694.513Z" fill="#5B8C00"/>
        <path fill-rule="evenodd" clip-rule="evenodd" d="M1132.79 778.819C1125.52 769.007 1122.86 754.926 1130.98 751.316C1138.77 747.854 1151.66 756.378 1157.63 772.782C1163.6 789.186 1167.05 800.98 1161.2 803.03C1151.62 806.395 1142.4 791.778 1132.79 778.819Z" fill="#5B8C00"/>
        <path fill-rule="evenodd" clip-rule="evenodd" d="M1209.25 779.564C1201.03 789.204 1189.16 808.595 1181.72 801.803C1177.21 797.688 1183.24 778.196 1199.73 767.59C1213.76 758.569 1217.48 769.924 1209.25 779.564Z" fill="#7CB305"/>
        <path fill-rule="evenodd" clip-rule="evenodd" d="M1130.54 712.67C1133.67 710.566 1137.6 710.085 1141.19 711.235C1146.2 712.84 1153.81 717.619 1161.33 731.336C1171.16 749.244 1176.27 768.877 1175.26 781.314C1174.6 789.446 1164.58 792.953 1158.98 787.023C1156.4 784.299 1153.68 780.101 1151.01 773.733C1140.29 748.104 1130.26 732.044 1129.07 730.431C1125.88 726.128 1123.6 717.341 1130.54 712.67Z" fill="#7CB305"/>
        <path fill-rule="evenodd" clip-rule="evenodd" d="M1137.73 722.893C1137.84 724.158 1136.9 725.27 1135.63 725.376C1134.37 725.482 1133.25 724.542 1133.15 723.277C1133.04 722.012 1133.98 720.9 1135.25 720.794C1136.51 720.688 1137.62 721.627 1137.73 722.893Z" fill="white"/>
        <path fill-rule="evenodd" clip-rule="evenodd" d="M1157.26 732.709C1157.37 733.975 1156.43 735.086 1155.16 735.193C1153.9 735.299 1152.78 734.359 1152.68 733.094C1152.57 731.828 1153.51 730.717 1154.78 730.61C1156.04 730.504 1157.15 731.444 1157.26 732.709Z" fill="white"/>
        <path fill-rule="evenodd" clip-rule="evenodd" d="M1153.99 758.847C1154.11 760.296 1153.03 761.569 1151.58 761.691C1150.13 761.812 1148.86 760.736 1148.74 759.287C1148.62 757.838 1149.69 756.565 1151.14 756.443C1152.59 756.321 1153.87 757.397 1153.99 758.847Z" fill="white"/>
        <path fill-rule="evenodd" clip-rule="evenodd" d="M1213.97 719.785C1213.97 721.842 1212.31 723.509 1210.25 723.509C1208.19 723.509 1206.52 721.842 1206.52 719.785C1206.52 717.729 1208.19 716.062 1210.25 716.062C1212.31 716.062 1213.97 717.729 1213.97 719.785Z" fill="white"/>
        <path fill-rule="evenodd" clip-rule="evenodd" d="M1184 731.157C1184 733.213 1182.33 734.88 1180.27 734.88C1178.21 734.88 1176.55 733.213 1176.55 731.157C1176.55 729.1 1178.21 727.433 1180.27 727.433C1182.33 727.433 1184 729.1 1184 731.157Z" fill="white"/>
        <path fill-rule="evenodd" clip-rule="evenodd" d="M1193.7 756.434C1193.7 757.293 1193.01 757.99 1192.15 757.99C1191.29 757.99 1190.59 757.293 1190.59 756.434C1190.59 755.574 1191.29 754.877 1192.15 754.877C1193.01 754.877 1193.7 755.574 1193.7 756.434Z" fill="white"/>
        <path fill-rule="evenodd" clip-rule="evenodd" d="M1204.92 776.338C1204.92 777.608 1203.89 778.637 1202.62 778.637C1201.35 778.637 1200.32 777.608 1200.32 776.338C1200.32 775.068 1201.35 774.039 1202.62 774.039C1203.89 774.039 1204.92 775.068 1204.92 776.338Z" fill="white"/>
        <path d="M1151.21 781.438C1151.43 781.233 1151.77 781.241 1151.97 781.456L1152.07 781.562L1152.14 781.644C1152.28 781.795 1152.43 781.975 1152.61 782.184C1153.11 782.778 1153.66 783.488 1154.26 784.313C1155.96 786.665 1157.65 789.47 1159.24 792.725C1163.75 802.013 1166.46 813.046 1166.46 825.782C1166.46 826.078 1166.22 826.318 1165.92 826.318C1165.63 826.318 1165.39 826.078 1165.39 825.782C1165.39 813.214 1162.72 802.34 1158.27 793.194C1156.72 789.996 1155.05 787.244 1153.39 784.941C1152.84 784.184 1152.33 783.529 1151.87 782.975L1151.79 782.873C1151.66 782.717 1151.54 782.579 1151.43 782.459L1151.3 782.308C1151.25 782.253 1151.21 782.215 1151.2 782.196C1150.99 781.981 1151 781.642 1151.21 781.438Z" fill="#253368"/>
        <path d="M1191.72 785.19C1191.89 784.953 1192.23 784.904 1192.47 785.081C1192.71 785.259 1192.75 785.595 1192.58 785.832C1190.62 788.447 1188.82 791.259 1187.17 794.24C1183.66 800.541 1180.95 807.297 1178.94 814.053C1178.24 816.417 1177.67 818.613 1177.23 820.582L1177.14 820.985C1177.04 821.467 1176.95 821.906 1176.87 822.3L1176.82 822.557L1176.73 823.044C1176.68 823.336 1176.41 823.532 1176.11 823.483C1175.82 823.434 1175.62 823.158 1175.67 822.866L1175.7 822.693C1175.73 822.554 1175.76 822.39 1175.8 822.202L1175.89 821.755C1175.97 821.33 1176.07 820.86 1176.19 820.347L1176.28 819.917C1176.71 818.037 1177.26 815.965 1177.92 813.747C1179.95 806.921 1182.68 800.094 1186.23 793.719C1187.91 790.697 1189.74 787.845 1191.72 785.19Z" fill="#253368"/>
        <path d="M1201.09 718.301C1201.29 718.498 1201.31 718.818 1201.13 719.033L1201.1 719.059C1201.09 719.07 1201.07 719.094 1201.04 719.131L1200.9 719.275L1200.83 719.36C1200.6 719.617 1200.33 719.927 1200.03 720.289C1199.16 721.328 1198.19 722.578 1197.14 724.039C1194.16 728.222 1191.17 733.26 1188.38 739.158C1183.73 748.979 1180.11 760.179 1177.91 772.77C1175.25 788.06 1174.81 804.763 1176.99 822.891C1177.02 823.185 1176.82 823.452 1176.52 823.487C1176.23 823.522 1175.96 823.313 1175.92 823.019C1173.73 804.787 1174.18 787.979 1176.86 772.586C1179.07 759.898 1182.72 748.606 1187.41 738.7C1190.23 732.742 1193.25 727.65 1196.27 723.416L1196.51 723.09C1197.44 721.799 1198.31 720.675 1199.1 719.72L1199.2 719.602C1199.49 719.261 1199.74 718.964 1199.97 718.712L1200.03 718.644C1200.1 718.566 1200.16 718.497 1200.22 718.437L1200.33 718.317C1200.53 718.103 1200.87 718.096 1201.09 718.301Z" fill="#253368"/>
        <path d="M1154.68 750.094C1154.93 749.941 1155.26 750.022 1155.42 750.275L1155.47 750.365C1155.51 750.438 1155.56 750.525 1155.62 750.625L1155.71 750.772C1155.85 751.025 1156.01 751.315 1156.19 751.643L1156.34 751.916C1156.88 752.931 1157.48 754.106 1158.12 755.436L1158.2 755.618C1160.29 759.979 1162.37 765.078 1164.31 770.872C1169.74 787.095 1173.05 805.508 1173.17 825.779C1173.17 826.075 1172.93 826.316 1172.64 826.318C1172.34 826.32 1172.1 826.082 1172.1 825.785C1171.98 805.633 1168.69 787.332 1163.29 771.212C1161.4 765.565 1159.37 760.586 1157.35 756.317L1157.24 756.08C1156.54 754.63 1155.9 753.364 1155.32 752.288L1155.14 751.966C1154.98 751.66 1154.82 751.391 1154.69 751.159L1154.63 751.05L1154.5 750.831C1154.35 750.578 1154.43 750.248 1154.68 750.094Z" fill="#253368"/>
        <path fill-rule="evenodd" clip-rule="evenodd" d="M1195.94 852.376H1149.6C1147.09 852.376 1145.05 850.326 1145.05 847.821V814.012C1145.05 811.507 1147.09 809.457 1149.6 809.457H1195.94C1198.45 809.457 1200.5 811.507 1200.5 814.012V847.821C1200.5 850.326 1198.45 852.376 1195.94 852.376Z" fill="#253368"/>
        <path fill-rule="evenodd" clip-rule="evenodd" d="M1040.06 640.993C1046.84 640.778 1052.17 635.113 1051.95 628.34L1050.72 589.546C1050.5 582.772 1044.83 577.456 1038.05 577.671C1031.26 577.886 1025.94 583.551 1026.15 590.323L1027.38 629.118C1027.6 635.891 1033.27 641.208 1040.06 640.993Z" fill="#E4EBF7"/>
        <path fill-rule="evenodd" clip-rule="evenodd" d="M1062.33 796.651C1066.75 797.07 1069.85 801.197 1069.01 805.553C1067.57 813.001 1065.5 824.48 1064.18 835.242C1062.99 844.887 1064.1 851.603 1062.06 854.024C1059.87 856.633 1055.63 854.133 1051.93 857.442C1048.23 860.752 1045.56 863.301 1036.08 860.798C1024.99 857.871 1035.03 855.305 1040.45 850.795C1050 842.832 1051.29 838.921 1052.06 832.768C1053.64 820.167 1054.02 810.414 1054.09 804.042C1054.13 799.647 1057.94 796.236 1062.33 796.651Z" fill="#FFC999"/>
        <path fill-rule="evenodd" clip-rule="evenodd" d="M1063.49 844.649C1063.49 844.649 1061.82 846.66 1056.17 850.801C1051.71 854.066 1048.81 856.035 1046.51 854.913C1042.32 852.863 1039.06 851.775 1039.06 851.775C1039.06 851.775 1034.98 853.621 1031.88 855.769C1028.78 857.917 1028.96 861.692 1035.52 863.044C1042.08 864.394 1045.89 864.187 1052.39 859.702C1058.88 855.216 1061.51 857.325 1062.61 854.633C1064.33 850.424 1063.49 844.649 1063.49 844.649Z" fill="#253368"/>
        <path fill-rule="evenodd" clip-rule="evenodd" d="M1084.24 752.418L1097.96 705.655C1100.67 695.947 1094.18 686.082 1084.18 684.718C1075.52 683.536 1067.42 689.236 1065.63 697.773L1055.54 745.743C1055.54 745.743 1051.92 759.252 1066.27 762.453C1080.22 765.566 1084.24 752.418 1084.24 752.418Z" fill="#253368"/>
        <path fill-rule="evenodd" clip-rule="evenodd" d="M1084.53 745.21L1069.26 830.551C1068.9 832.591 1067.1 834.063 1065.03 834.023L1050.38 833.729C1047.91 833.679 1046.01 831.536 1046.26 829.084L1055.08 743.96C1055.08 743.96 1056.04 729.434 1071.57 731.067C1086.05 732.59 1084.53 745.21 1084.53 745.21Z" fill="#253368"/>
        <path fill-rule="evenodd" clip-rule="evenodd" d="M1069.38 834.655L1045.36 834.175C1044.85 834.164 1044.46 833.728 1044.5 833.222L1045.34 822.953C1045.38 822.489 1045.77 822.135 1046.24 822.144L1071.76 822.655C1072.32 822.666 1072.73 823.187 1072.6 823.731L1070.25 833.971C1070.16 834.378 1069.79 834.663 1069.38 834.655Z" fill="#4E5C93"/>
        <path fill-rule="evenodd" clip-rule="evenodd" d="M1071.29 785.22C1075.19 783.095 1080.08 784.782 1081.82 788.863C1084.8 795.841 1089.52 806.51 1094.46 816.169C1098.88 824.825 1103.56 829.773 1103.23 832.916C1102.87 836.305 1097.96 836.601 1096.75 841.411C1095.54 846.22 1094.75 849.826 1085.49 853.047C1074.67 856.813 1081.55 849.079 1083.51 842.318C1086.96 830.379 1085.84 826.418 1083.03 820.889C1077.27 809.565 1072.12 801.267 1068.6 795.95C1066.18 792.282 1067.42 787.325 1071.29 785.22Z" fill="#FFC999"/>
        <path fill-rule="evenodd" clip-rule="evenodd" d="M1099.16 824.348C1099.16 824.348 1098.9 826.948 1096.54 833.538C1094.67 838.738 1093.38 841.985 1090.84 842.34C1086.21 842.986 1082.91 843.904 1082.91 843.904C1082.91 843.904 1080.56 847.713 1079.19 851.226C1077.83 854.738 1080.1 857.764 1086.29 855.221C1092.48 852.677 1095.53 850.374 1098.39 843.028C1101.26 835.683 1104.62 835.963 1104.02 833.115C1103.09 828.665 1099.16 824.348 1099.16 824.348Z" fill="#253368"/>
        <path fill-rule="evenodd" clip-rule="evenodd" d="M1038.66 741.357L1045.29 693.079C1046.79 683.113 1056.75 676.76 1066.44 679.596C1074.82 682.05 1079.88 690.557 1078.02 699.08L1067.58 746.975C1067.58 746.975 1065.36 760.782 1050.96 757.849C1036.95 754.997 1038.66 741.357 1038.66 741.357Z" fill="#253368"/>
        <path fill-rule="evenodd" clip-rule="evenodd" d="M1039.46 748.5L1076.82 819.493C1077.71 821.191 1079.82 821.969 1081.8 821.328L1095.73 816.807C1098.08 816.046 1099.32 813.598 1098.43 811.506L1067.3 738.829C1067.3 738.829 1062.51 726.267 1048.09 732.228C1034.64 737.789 1039.46 748.5 1039.46 748.5Z" fill="#253368"/>
        <path fill-rule="evenodd" clip-rule="evenodd" d="M1078.51 823.796L1100.75 814.725C1101.22 814.533 1101.43 813.983 1101.21 813.527L1096.72 804.247C1096.52 803.827 1096.03 803.639 1095.6 803.814L1071.97 813.455C1071.45 813.667 1071.26 814.299 1071.57 814.762L1077.45 823.473C1077.68 823.819 1078.13 823.955 1078.51 823.796Z" fill="#4E5C93"/>
        <path fill-rule="evenodd" clip-rule="evenodd" d="M1059.71 722.609L1038.61 702.595C1036.81 701.249 1035.87 699.05 1036.13 696.822L1034.37 671.917L1094.66 672.87L1094.96 699.234C1094.98 700.874 1094.36 702.45 1093.24 703.643C1089.78 707.3 1081.12 714.57 1066.05 722.397C1064 723.459 1061.5 724.061 1059.71 722.609Z" fill="#253368"/>
        <path d="M1035.85 679.231C1035.66 679.227 1035.51 679.375 1035.51 679.562C1035.5 679.73 1035.62 679.871 1035.78 679.901L1035.84 679.906L1090.45 681.025C1090.64 681.029 1090.79 680.881 1090.8 680.695C1090.8 680.527 1090.68 680.385 1090.52 680.356L1090.46 680.35L1035.85 679.231Z" fill="#253368"/>
        <path d="M1067.28 672.437C1067.11 672.434 1066.97 672.553 1066.94 672.713L1066.94 672.768L1066.78 680.202C1066.78 680.389 1066.93 680.543 1067.12 680.547C1067.28 680.55 1067.43 680.431 1067.45 680.271L1067.46 680.216L1067.61 672.782C1067.62 672.595 1067.47 672.441 1067.28 672.437Z" fill="#253368"/>
        <path fill-rule="evenodd" clip-rule="evenodd" d="M1084.83 537.795C1084.83 537.795 1088.1 519.757 1065.18 519.6C1052.36 520.371 1051.7 541.555 1051.7 541.555C1051.7 541.555 1050.6 545.958 1052.07 550.608C1053.71 555.817 1058.5 557.753 1064.89 558.621C1076.82 558.741 1081.92 552.417 1081.92 552.417C1081.92 552.417 1090.1 553.403 1089.88 543.064C1089.61 533.471 1084.83 537.795 1084.83 537.795Z" fill="#FFC999"/>
        <path fill-rule="evenodd" clip-rule="evenodd" d="M1083.5 525.187C1083.19 529.857 1086.74 533.892 1091.42 534.198C1096.09 534.504 1100.13 530.968 1100.44 526.298C1100.75 521.629 1097.21 517.594 1092.53 517.287C1087.85 516.981 1083.81 520.517 1083.5 525.187Z" fill="#253368"/>
        <path fill-rule="evenodd" clip-rule="evenodd" d="M1051.77 542.218C1051.77 542.218 1049.3 537.221 1048.01 531.371C1046.72 525.521 1058.42 514.757 1059.96 513.929C1061.51 513.101 1062.31 512.223 1072.27 516.596C1102.47 519.792 1093.46 547.023 1093.46 547.023C1093.46 547.023 1096.82 549.802 1094.33 556.52C1091.47 563.213 1081.97 562.83 1081.97 562.83L1082.35 552.09C1082.35 552.09 1085.54 552.541 1088.19 548.996C1090.85 545.451 1089.06 540.813 1087.6 540.345C1086.34 539.27 1083.01 539.548 1082.75 543.505C1082.62 545.497 1079.11 540.783 1078.13 533.1C1067.69 530.37 1065.52 522.849 1065.52 522.849C1065.52 522.849 1064.69 529.861 1066.16 532.934C1060.71 530.902 1057.93 527.745 1059.07 524.657C1052.58 527.021 1051.77 542.218 1051.77 542.218Z" fill="#253368"/>
        <path fill-rule="evenodd" clip-rule="evenodd" d="M1081.89 564.149L1082.67 548.15L1061.77 547.263C1061.77 547.263 1061.13 558.18 1060.43 562.579C1046.35 569.147 1076.7 576.769 1084.36 568.825C1086.72 566.371 1081.89 564.149 1081.89 564.149Z" fill="#FFC999"/>
        <path fill-rule="evenodd" clip-rule="evenodd" d="M1063.94 539.568C1064.07 543.644 1067.04 546.861 1070.57 546.753C1074.11 546.646 1076.87 543.254 1076.75 539.179C1076.62 535.103 1073.66 531.885 1070.12 531.993C1066.59 532.101 1063.82 535.492 1063.94 539.568Z" fill="white"/>
        <path d="M1070.11 531.553C1073.9 531.437 1077.06 534.858 1077.19 539.165C1077.32 543.471 1074.38 547.078 1070.59 547.193C1066.79 547.309 1063.64 543.888 1063.5 539.581C1063.37 535.275 1066.31 531.668 1070.11 531.553ZM1070.13 532.433C1066.86 532.533 1064.27 535.708 1064.39 539.554C1064.5 543.401 1067.28 546.413 1070.56 546.313C1073.83 546.214 1076.42 543.037 1076.31 539.192C1076.19 535.407 1073.5 532.429 1070.29 532.431L1070.13 532.433Z" fill="#4E5C93"/>
        <path fill-rule="evenodd" clip-rule="evenodd" d="M1049.77 538.092C1049.9 542.168 1052.68 545.391 1055.99 545.29C1059.3 545.189 1061.89 541.803 1061.76 537.727C1061.64 533.651 1058.85 530.428 1055.54 530.529C1052.23 530.63 1049.65 534.015 1049.77 538.092Z" fill="white"/>
        <path d="M1055.53 530.089C1059.11 529.98 1062.07 533.412 1062.2 537.714C1062.33 542.015 1059.58 545.621 1056.01 545.729C1052.43 545.839 1049.46 542.406 1049.33 538.105C1049.2 533.804 1051.95 530.198 1055.53 530.089ZM1055.56 530.969C1052.51 531.061 1050.1 534.227 1050.21 538.078C1050.33 541.93 1052.94 544.943 1055.98 544.85C1059.02 544.757 1061.44 541.592 1061.32 537.74C1061.2 533.951 1058.68 530.974 1055.7 530.967L1055.56 530.969Z" fill="#4E5C93"/>
        <path d="M1062.77 540.462C1062.66 540.344 1062.48 540.326 1062.35 540.411L1062.3 540.448L1059.83 542.769C1059.71 542.883 1059.69 543.065 1059.78 543.197L1059.82 543.243L1062.19 545.61C1062.32 545.739 1062.53 545.739 1062.66 545.61C1062.77 545.495 1062.79 545.317 1062.7 545.189L1062.66 545.143L1060.53 543.017L1062.76 540.929C1062.87 540.818 1062.89 540.641 1062.81 540.509L1062.77 540.462Z" fill="#DD936F"/>
        <path d="M1067.43 547.148C1067.38 546.91 1067.14 546.757 1066.91 546.807L1066.67 546.853L1066.58 546.87C1066.32 546.917 1066.03 546.965 1065.72 547.009C1065.08 547.102 1064.45 547.168 1063.87 547.196C1063.01 547.238 1062.3 547.194 1061.82 547.054C1061.59 546.986 1061.34 547.12 1061.28 547.353C1061.21 547.586 1061.34 547.831 1061.58 547.899C1062.17 548.073 1062.96 548.122 1063.91 548.076C1064.53 548.046 1065.18 547.977 1065.85 547.88C1066.01 547.857 1066.16 547.834 1066.31 547.809L1066.91 547.703C1066.99 547.689 1067.05 547.677 1067.08 547.669C1067.32 547.619 1067.48 547.386 1067.43 547.148Z" fill="#F5222D"/>
        <path fill-rule="evenodd" clip-rule="evenodd" d="M1063.97 537.637C1063.97 537.637 1062.91 536.822 1061.87 537.499Z" fill="white"/>
        <path d="M1063.97 537.637C1063.97 537.637 1062.91 536.822 1061.87 537.499" stroke="#4E5C93" stroke-width="1.5" stroke-linecap="round" stroke-linejoin="round"/>
        <path d="M1071.96 557.546C1071.08 557.697 1070.07 557.798 1068.97 557.855C1067.15 557.948 1065.21 557.917 1063.33 557.807L1062.68 557.766L1061.92 557.706C1061.73 557.689 1061.57 557.823 1061.56 558.004C1061.54 558.186 1061.67 558.347 1061.85 558.364L1062.15 558.389L1062.63 558.425C1062.84 558.439 1063.06 558.453 1063.29 558.467C1065.19 558.577 1067.16 558.609 1069 558.514C1070.13 558.457 1071.16 558.353 1072.07 558.197C1072.25 558.166 1072.37 557.995 1072.34 557.815C1072.31 557.654 1072.17 557.54 1072.01 557.541L1071.96 557.546Z" fill="#DD936F"/>
        <path fill-rule="evenodd" clip-rule="evenodd" d="M1067.63 538.759C1067.57 539.761 1067.96 540.602 1068.5 540.637C1069.05 540.674 1069.55 539.891 1069.61 538.889C1069.68 537.887 1069.29 537.046 1068.74 537.01C1068.2 536.974 1067.7 537.757 1067.63 538.759Z" fill="#253368"/>
        <path fill-rule="evenodd" clip-rule="evenodd" d="M1054.74 538.079C1054.67 539.081 1055.06 539.922 1055.61 539.957C1056.16 539.993 1056.66 539.211 1056.72 538.209C1056.79 537.207 1056.4 536.366 1055.85 536.33C1055.3 536.294 1054.8 537.077 1054.74 538.079Z" fill="#253368"/>
        <path d="M1076.75 539.178L1082.5 539.68" stroke="#4E5C93" stroke-width="1.5" stroke-linecap="round" stroke-linejoin="round"/>
        <path fill-rule="evenodd" clip-rule="evenodd" d="M1056.64 566.842L1057.63 566.803C1056.99 572.79 1079.58 573.298 1082.96 566.308C1083.04 566.13 1083.11 565.963 1083.16 565.803L1085.91 565.696L1088.76 669.772C1088.76 669.772 1069.22 678.476 1050.24 671.72C1040.68 588.744 1056.64 566.842 1056.64 566.842Z" fill="#597EF7"/>
        <path d="M1080.72 574.332C1080.64 574.163 1080.44 574.09 1080.27 574.169L1080.17 574.214L1080.06 574.261C1079.88 574.337 1079.67 574.422 1079.43 574.513C1078.75 574.775 1077.96 575.037 1077.1 575.281C1071.79 576.777 1066.2 576.939 1060.97 574.91C1060.62 574.776 1060.28 574.632 1059.94 574.479C1059.77 574.402 1059.57 574.478 1059.49 574.647C1059.41 574.817 1059.49 575.017 1059.66 575.094C1060.01 575.252 1060.36 575.401 1060.72 575.539C1066.11 577.63 1071.85 577.463 1077.28 575.931C1078.17 575.681 1078.97 575.412 1079.67 575.144L1079.95 575.034C1080.04 574.998 1080.13 574.964 1080.21 574.931L1080.55 574.781C1080.72 574.702 1080.8 574.501 1080.72 574.332Z" fill="#597EF7"/>
        <path fill-rule="evenodd" clip-rule="evenodd" d="M1060.62 564.087C1060.62 564.087 1055.08 577.371 1054.61 629.092C1054.24 670.286 1056.24 742.184 1056.24 742.184C1056.24 742.184 1038.28 740.84 1034.64 734.004C1030.88 726.957 1030.78 674.717 1031.02 648.373C1031.45 600.397 1029.87 589.544 1033.75 578.808C1038.23 576.225 1045.32 572.426 1052.24 568.657C1053.92 567.741 1056.84 565.279 1057.91 564.689C1060.82 563.086 1060.62 564.087 1060.62 564.087Z" fill="#E4EBF7"/>
        <path d="M1034.72 588.755C1034.47 588.723 1034.25 588.892 1034.22 589.133L1034.13 589.814L1033.95 591.32C1033.89 591.844 1033.82 592.408 1033.76 593.011L1033.63 594.192C1033.32 596.99 1033.02 600.081 1032.73 603.413C1031.67 615.849 1031.1 628.63 1031.28 640.91C1031.28 641.153 1031.48 641.348 1031.73 641.344C1031.97 641.341 1032.17 641.141 1032.16 640.898C1031.99 629.14 1032.51 616.916 1033.49 604.978L1033.61 603.488C1033.92 599.925 1034.24 596.64 1034.57 593.694L1034.75 592.069C1034.8 591.626 1034.85 591.208 1034.9 590.817L1035.1 589.249C1035.13 589.008 1034.96 588.787 1034.72 588.755Z" fill="#A3B5D6"/>
        <path fill-rule="evenodd" clip-rule="evenodd" d="M1109.1 573.872C1102.01 570.676 1094.3 569.484 1089.81 567.078C1086.93 565.537 1084.6 563.428 1082.35 562.739C1068.96 627.538 1074.4 708.083 1077.84 745.159C1094.81 746.974 1111.36 734.005 1111.36 734.005C1111.36 734.005 1110.14 674.61 1107.76 640.903C1105.77 612.866 1110.91 574.689 1109.1 573.872Z" fill="#E4EBF7"/>
        <path d="M1082.78 562.144C1082.58 562.011 1082.3 562.067 1082.17 562.27C1082.05 562.455 1082.08 562.697 1082.24 562.84L1082.29 562.88L1089.17 567.388L1089.19 567.723L1089.19 567.869C1089.3 570.297 1089.22 573.615 1088.84 577.728C1088.29 583.536 1087.2 589.91 1085.44 596.764L1085.25 597.5C1084.93 598.739 1084.61 599.947 1084.27 601.238L1081.78 610.513C1080.58 615.007 1079.8 618.092 1079.11 621.15C1077.68 627.498 1076.74 633.471 1076.02 641.095C1075.99 641.337 1076.17 641.552 1076.42 641.575C1076.66 641.597 1076.87 641.42 1076.9 641.178C1077.59 633.828 1078.5 628.026 1079.84 621.934L1080.11 620.753C1080.67 618.29 1081.3 615.749 1082.19 612.408L1083.08 609.074L1084.88 602.338C1085.32 600.707 1085.71 599.238 1086.11 597.723C1087.98 590.541 1089.14 583.872 1089.71 577.81C1090.1 573.657 1090.18 570.299 1090.07 567.831L1090.05 567.292C1090.04 567.199 1090.03 567.137 1090.03 567.104C1090.02 566.991 1089.97 566.888 1089.89 566.813L1089.83 566.772L1082.78 562.144Z" fill="#A3B5D6"/>
        <path d="M1060.71 563.036C1060.59 562.849 1060.36 562.781 1060.16 562.867L1060.1 562.898L1051.51 568.304C1051.4 568.369 1051.33 568.476 1051.31 568.597L1051.26 568.869L1051.18 569.439C1051.16 569.557 1051.14 569.682 1051.12 569.814L1051.1 570.018C1050.94 571.206 1050.78 572.658 1050.64 574.384L1050.56 575.288C1049.39 590.201 1049.76 612.23 1052.74 642.315C1052.76 642.557 1052.97 642.733 1053.22 642.71C1053.46 642.686 1053.64 642.47 1053.61 642.228L1053.43 640.4C1050.57 610.693 1050.28 589.026 1051.52 574.458L1051.58 573.741C1051.71 572.34 1051.84 571.139 1051.97 570.133L1052.07 569.396L1052.13 569.009L1052.14 568.943L1060.57 563.643C1060.76 563.525 1060.83 563.29 1060.74 563.094L1060.71 563.036Z" fill="#A3B5D6"/>
        <path d="M1108.54 662.874L1093.4 665.562C1093.2 665.597 1093.05 665.76 1093.04 665.954L1093.03 666.013L1094.27 697.543C1094.39 700.473 1097.02 702.645 1099.91 702.233L1100.06 702.21L1110.62 700.379C1110.86 700.338 1111.03 700.11 1110.98 699.87C1110.95 699.651 1110.75 699.498 1110.53 699.506L1110.47 699.512L1099.9 701.342C1097.53 701.754 1095.33 700.023 1095.16 697.644L1095.15 697.508L1093.93 666.361L1108.69 663.741C1108.91 663.701 1109.06 663.506 1109.05 663.29L1109.05 663.23C1109.01 663.011 1108.81 662.858 1108.59 662.867L1108.54 662.874Z" fill="#A3B5D6"/>
        <path d="M1034.08 664.102C1033.84 664.032 1033.6 664.165 1033.53 664.397C1033.46 664.611 1033.57 664.835 1033.77 664.924L1033.82 664.945L1041.34 667.193L1042.11 700.524C1042.13 701.335 1041.33 701.903 1040.58 701.645L1040.5 701.614L1033.18 698.496C1032.96 698.401 1032.7 698.505 1032.6 698.729C1032.51 698.934 1032.59 699.168 1032.78 699.279L1032.83 699.306L1040.15 702.424C1041.49 702.991 1042.96 702.03 1042.99 700.606V700.503L1042.22 666.854C1042.21 666.684 1042.11 666.534 1041.96 666.464L1041.9 666.442L1034.08 664.102Z" fill="#A3B5D6"/>
        <path fill-rule="evenodd" clip-rule="evenodd" d="M987.387 636.876L1046.13 637.427C1048.36 637.447 1049.98 635.303 1049.34 633.167L1036.95 591.834C1036.54 590.443 1035.26 589.485 1033.81 589.472L975.063 588.921C972.83 588.9 971.215 591.045 971.856 593.181L984.24 634.514C984.657 635.905 985.933 636.862 987.387 636.876Z" fill="#A3B5D6"/>
        <path fill-rule="evenodd" clip-rule="evenodd" d="M984.904 636.876L1043.65 637.427C1045.88 637.447 1047.5 635.304 1046.86 633.167L1034.47 591.834C1034.05 590.443 1032.78 589.485 1031.32 589.472L972.58 588.921C970.348 588.9 968.732 591.045 969.372 593.181L981.758 634.514C982.174 635.905 983.45 636.862 984.904 636.876Z" fill="#253368"/>
        <path fill-rule="evenodd" clip-rule="evenodd" d="M979.83 618.803C979.83 618.803 972.261 615.59 970.488 616.496C967.74 617.901 971.836 622.692 971.836 622.692C971.836 622.692 970.015 625.25 972.723 627.443C972.759 630.574 974.782 631.301 974.782 631.301C974.782 631.301 973.994 633.995 976.918 634.803C979.843 635.61 984.81 633.123 982.652 629.846C983.948 627.061 981.476 625.752 981.476 625.752C981.476 625.752 982.243 623.282 979.81 622.066C980.984 620.63 980.617 619.146 979.83 618.803Z" fill="#F4B784"/>
        <path d="M973.143 620.687C972.965 620.659 972.797 620.781 972.769 620.959C972.744 621.12 972.84 621.271 972.99 621.32L973.042 621.333L979.759 622.388C979.937 622.416 980.104 622.295 980.133 622.116C980.158 621.956 980.062 621.805 979.912 621.755L979.86 621.743L973.143 620.687Z" fill="#DD936F"/>
        <path d="M981.445 625.426L975.582 625.989C975.402 626.006 975.27 626.166 975.287 626.345C975.303 626.507 975.434 626.63 975.591 626.64L975.644 626.639L981.508 626.077C981.687 626.059 981.819 625.9 981.802 625.72C981.786 625.559 981.655 625.436 981.498 625.425L981.445 625.426Z" fill="#DD936F"/>
        <path d="M982.59 629.526L977.137 630.579C976.96 630.613 976.844 630.784 976.878 630.961C976.909 631.121 977.051 631.231 977.208 631.226L977.261 631.22L982.715 630.167C982.892 630.133 983.008 629.962 982.974 629.784C982.943 629.625 982.801 629.515 982.643 629.52L982.59 629.526Z" fill="#DD936F"/>
        <path fill-rule="evenodd" clip-rule="evenodd" d="M1119.46 640.019C1126.02 638.265 1129.91 631.537 1128.15 624.992L1116.55 581.79C1114.8 575.244 1108.06 571.36 1101.5 573.114C1094.94 574.868 1091.05 581.596 1092.81 588.142L1104.41 631.343C1106.16 637.889 1112.9 641.773 1119.46 640.019Z" fill="#E4EBF7"/>
        <path fill-rule="evenodd" clip-rule="evenodd" d="M1051.81 641.712C1051.81 641.712 1062.04 640.664 1063.64 634.822C1065.09 629.531 1059.97 627.454 1059.97 627.454C1059.97 627.454 1055.22 624.586 1049.11 623.663C1045.09 623.055 1037.32 622.673 1036.72 624.74C1035.93 627.434 1044.74 627.355 1044.79 629.397C1044.84 631.493 1043.02 631.644 1038.99 633.347C1036.48 634.411 1033.58 634.472 1031.62 635.78C1027.78 638.338 1036.59 644.562 1051.81 641.712Z" fill="#FFC999"/>
        <path d="M1044.4 634.78C1044.29 634.635 1044.08 634.608 1043.94 634.719L1043.82 634.8L1043.78 634.831C1043.64 634.925 1043.48 635.03 1043.29 635.144C1042.74 635.47 1042.09 635.798 1041.35 636.104C1038.88 637.12 1035.98 637.661 1032.71 637.47C1032.53 637.459 1032.38 637.598 1032.37 637.78C1032.35 637.962 1032.49 638.118 1032.68 638.129C1036.05 638.326 1039.04 637.767 1041.6 636.714C1042.37 636.395 1043.05 636.054 1043.62 635.711C1043.78 635.62 1043.91 635.534 1044.03 635.454L1044.25 635.31C1044.29 635.281 1044.32 635.258 1044.34 635.243C1044.48 635.132 1044.51 634.924 1044.4 634.78Z" fill="#DD936F"/>
        <path d="M1046.38 638.025C1046.3 637.861 1046.1 637.793 1045.94 637.873C1045.72 637.98 1045.49 638.082 1045.26 638.18C1043.55 638.92 1041.71 639.376 1039.84 639.6C1038.66 639.742 1037.6 639.777 1036.73 639.747L1036.52 639.738C1036.39 639.732 1036.3 639.726 1036.25 639.722C1036.07 639.706 1035.91 639.84 1035.89 640.021C1035.88 640.203 1036.01 640.363 1036.19 640.38L1036.41 640.394L1036.49 640.398C1039.14 640.526 1042.39 640.136 1045.53 638.786C1045.76 638.685 1046 638.578 1046.23 638.466C1046.39 638.387 1046.46 638.189 1046.38 638.025Z" fill="#DD936F"/>
        <path d="M1049.65 639.851C1049.56 639.697 1049.35 639.649 1049.2 639.746L1049.12 639.792C1049.01 639.854 1048.83 639.945 1048.58 640.056C1048.05 640.298 1047.39 640.541 1046.61 640.768C1045.01 641.233 1043.11 641.571 1040.9 641.724C1040.72 641.737 1040.58 641.894 1040.59 642.076C1040.6 642.258 1040.76 642.395 1040.94 642.383C1043.2 642.226 1045.15 641.881 1046.79 641.402C1047.6 641.166 1048.29 640.912 1048.86 640.658L1049.07 640.559C1049.3 640.451 1049.46 640.364 1049.55 640.306C1049.7 640.21 1049.75 640.006 1049.65 639.851Z" fill="#DD936F"/>
        <path fill-rule="evenodd" clip-rule="evenodd" d="M1057.16 620.955L1057.78 641.964L1115.15 642.052C1121.93 641.855 1127.27 636.203 1127.07 629.43C1126.88 622.656 1121.22 617.325 1114.43 617.524L1057.16 620.955Z" fill="#E4EBF7"/>
        <path d="M1110.62 616.266L1056.82 620.525C1056.6 620.542 1056.44 620.71 1056.41 620.919L1056.41 620.977L1057.03 641.987C1057.03 642.205 1057.2 642.382 1057.41 642.41L1057.47 642.414L1115.15 642.493C1115.39 642.493 1115.59 642.296 1115.59 642.053C1115.59 641.83 1115.42 641.646 1115.21 641.616L1115.15 641.612L1057.9 641.534L1057.31 621.37L1110.69 617.143C1110.91 617.126 1111.08 616.946 1111.1 616.73L1111.1 616.67C1111.08 616.448 1110.9 616.277 1110.68 616.265L1110.62 616.266Z" fill="#A3B5D6"/>
        <path d="M1066.06 621.873C1065.83 621.88 1065.65 622.051 1065.63 622.266L1065.63 622.326L1066.15 640.166C1066.16 640.409 1066.36 640.6 1066.6 640.593C1066.83 640.587 1067.01 640.416 1067.03 640.2L1067.03 640.14L1066.51 622.301C1066.5 622.058 1066.3 621.866 1066.06 621.873Z" fill="#A3B5D6"/>
    </g>
    <defs>
        <filter id="filter0_d_179459_171078" x="0" y="0" width="1448" height="908" filterUnits="userSpaceOnUse" color-interpolation-filters="sRGB">
            <feFlood flood-opacity="0" result="BackgroundImageFix"/>
            <feColorMatrix in="SourceAlpha" type="matrix" values="0 0 0 0 0 0 0 0 0 0 0 0 0 0 0 0 0 0 127 0" result="hardAlpha"/>
            <feOffset dy="4"/>
            <feGaussianBlur stdDeviation="2"/>
            <feComposite in2="hardAlpha" operator="out"/>
            <feColorMatrix type="matrix" values="0 0 0 0 0 0 0 0 0 0 0 0 0 0 0 0 0 0 0.25 0"/>
            <feBlend mode="normal" in2="BackgroundImageFix" result="effect1_dropShadow_179459_171078"/>
            <feBlend mode="normal" in="SourceGraphic" in2="effect1_dropShadow_179459_171078" result="shape"/>
        </filter>
        <clipPath id="clip0_179459_171078">
            <rect width="1440" height="900" fill="white" transform="translate(4)"/>
        </clipPath>
    </defs>
</svg>
